# Blender v2.74 (sub 0) OBJ File: 'huisje.blend'
# www.blender.org
mtllib huisje.mtl
o House_Plane.001
v -0.942165 0.052603 4.146795
v 0.970106 0.052603 4.146795
v -0.942165 0.052603 -4.104884
v 1.189703 2.968859 4.366392
v -1.161762 2.968859 4.366392
v 5.752595 0.052603 -4.104884
v 5.752595 0.052603 -2.805904
v -1.161762 2.968859 -4.324481
v 1.189703 2.968859 -2.586307
v 5.972192 2.968859 -4.324481
v 5.972192 2.968859 -2.586307
v 1.189703 2.968859 4.366392
v -1.161762 2.968859 4.366392
v -1.161762 2.968859 -4.324481
v 1.189703 2.968859 -2.586307
v 5.972192 2.968859 -4.324481
v 5.972192 2.968859 -2.586307
v 1.189703 2.968859 4.366392
v -1.161762 2.968859 4.366392
v 0.013971 3.879358 -3.455394
v 5.972192 2.968859 -4.324481
v 5.971138 2.970162 -2.587976
v -1.161762 2.968859 -4.324481
v 0.013971 3.879358 3.638621
v 1.189703 2.968859 -2.586307
v 5.243367 3.880661 -3.457064
v -0.942165 2.968859 -4.104884
v -0.942165 2.968859 4.146795
v 5.752595 2.968859 -2.805904
v 5.752595 2.968859 -4.104884
v 0.970106 2.968859 4.146795
v 4.281660 0.828839 -2.805904
v 4.281660 2.968859 -2.805904
v 2.757598 2.968859 -2.805904
v 2.757598 0.828839 -2.805904
v -0.634517 1.579976 4.153693
v -0.619873 1.565333 4.168337
v -0.619873 1.594620 4.168337
v 2.757598 0.052603 -2.805904
v 4.281660 0.052603 -2.805904
v 5.752595 0.828839 -2.805904
v 3.470886 2.292222 -2.805983
v 2.808856 2.292222 -2.805983
v 3.470322 1.635530 -2.805948
v 2.808291 1.635530 -2.805948
v 4.232352 1.635530 -2.805948
v 4.232917 2.292222 -2.805983
v 3.570322 1.635530 -2.805948
v 3.570886 2.292222 -2.805983
v 2.808205 1.535530 -2.805942
v 2.807641 0.878839 -2.805907
v 3.469672 0.878839 -2.805907
v 3.470236 1.535530 -2.805942
v 3.569672 0.878839 -2.805907
v 4.231702 0.878839 -2.805907
v 4.232266 1.535530 -2.805942
v 3.570236 1.535530 -2.805942
v 3.470322 1.635533 -2.755948
v 2.808291 1.635533 -2.755948
v 3.470886 2.292224 -2.755983
v 2.808856 2.292224 -2.755983
v 2.758898 2.330384 -2.757752
v 4.232917 2.292224 -2.755983
v 4.232352 1.635533 -2.755948
v 3.570322 1.635533 -2.755948
v 3.570886 2.292224 -2.755983
v 4.282960 2.326375 -2.754124
v 2.808205 1.535533 -2.755942
v 2.807641 0.878842 -2.755907
v 3.469672 0.878842 -2.755907
v 3.470236 1.535533 -2.755942
v 2.757598 0.828842 -2.755904
v 3.569672 0.878842 -2.755907
v 4.231702 0.878842 -2.755907
v 4.232266 1.535533 -2.755942
v 3.570236 1.535533 -2.755942
v 4.281660 0.828842 -2.755904
v 0.970106 0.052603 -2.801377
v 0.952703 2.969960 -2.798118
v 0.964305 2.969226 3.379606
v 0.958504 2.969593 1.590294
v 0.958504 2.344519 -2.799204
v 0.970106 0.052603 1.588121
v 0.970106 0.052603 3.378519
v 0.970106 0.806780 4.146795
v 0.970106 2.343786 4.146795
v 0.966238 2.344030 3.379243
v 0.962371 2.344275 1.589570
v 0.968172 0.806903 3.378881
v 0.966238 0.807025 1.588845
v 0.967032 1.625471 3.329074
v 0.966223 2.294037 3.329232
v 0.964478 2.294146 2.534389
v 0.965771 1.625553 2.534153
v 0.964320 2.294159 2.434389
v 0.962576 2.294268 1.639546
v 0.964289 1.625645 1.639231
v 0.965550 1.625563 2.434153
v 0.968026 0.856906 3.328893
v 0.967194 0.856960 2.533881
v 0.967216 1.525472 3.329050
v 0.965901 1.525553 2.534117
v 0.967028 0.856967 2.433881
v 0.966196 0.857021 1.638869
v 0.964482 1.525645 1.639184
v 0.965798 1.525563 2.434117
v 1.067032 1.625660 3.328912
v 1.065771 1.625742 2.533990
v 1.064478 2.294334 2.534227
v 1.066222 2.294226 3.329069
v 1.068026 0.857095 3.328731
v 1.066238 2.344219 3.379081
v 1.062575 2.294457 1.639384
v 1.065550 1.625752 2.433990
v 1.064289 1.625833 1.639069
v 1.064320 2.294348 2.434227
v 1.062371 2.344464 1.589408
v 1.066196 0.857210 1.638707
v 1.067216 1.525660 3.328888
v 1.065901 1.525742 2.533955
v 1.067194 0.857149 2.533719
v 1.068172 0.807091 3.378719
v 1.065797 1.525752 2.433955
v 1.064482 1.525833 1.639022
v 1.067027 0.857156 2.433719
v 1.066238 0.807214 1.588683
v 0.956570 2.969715 1.170362
v 0.954636 2.969838 -0.632073
v 0.970106 0.052603 -0.634970
v 0.970106 0.052603 1.167827
v 0.962371 2.342962 1.589570
v 0.966238 0.808997 1.588845
v 0.958504 2.343207 -2.799204
v 1.058811 2.345974 -1.156794
v 0.960255 2.346532 1.169437
v 0.958966 2.346614 -0.633119
v 0.964767 0.812526 1.168592
v 0.964949 0.809078 -0.634004
v 0.962327 1.629530 1.119042
v 0.960376 2.296535 1.119410
v 0.960621 2.293082 0.318210
v 0.961907 1.629558 0.317736
v 0.960569 2.293087 0.218210
v 0.959160 2.296612 -0.583151
v 0.962240 1.626100 -0.583490
v 0.962660 1.626073 0.217816
v 0.964592 0.862527 1.118620
v 0.965142 0.859057 0.317363
v 0.962641 1.529531 1.118987
v 0.962202 1.529558 0.317677
v 0.965086 0.859059 0.217363
v 0.964809 0.859077 -0.583973
v 0.962556 1.526100 -0.583553
v 0.962995 1.526073 0.217757
v 1.062327 1.629894 1.119129
v 1.060375 2.296898 1.119496
v 1.060620 2.293446 0.318296
v 1.061906 1.629921 0.317822
v 1.060254 2.346896 1.169523
v 1.060568 2.293450 0.218296
v 1.059159 2.296975 -0.583064
v 1.062660 1.626436 0.217902
v 1.062239 1.626464 -0.583404
v 1.058965 2.346977 -0.633033
v 1.064592 0.862890 1.118706
v 1.065141 0.859420 0.317450
v 1.062640 1.529895 1.119074
v 1.062201 1.529922 0.317763
v 1.064766 0.812890 1.168679
v 1.065086 0.859422 0.217450
v 1.064808 0.859441 -0.583887
v 1.062556 1.526464 -0.583467
v 1.062994 1.526437 0.217843
v 1.064949 0.809442 -0.633918
v 1.070105 0.053099 -1.158752
v 0.958812 2.345478 -1.156786
v 0.958658 2.344342 -2.166091
v 0.970106 0.052603 -1.158744
v 0.970106 0.052603 -2.168157
v 1.070105 0.053099 -2.168165
v 1.058657 2.344839 -2.166099
v 1.062541 1.156600 -1.493894
v 1.062507 1.156347 -1.830341
v 1.066152 1.079548 -1.495085
v 1.066135 1.079422 -1.831544
v 1.162422 1.161484 -1.493904
v 1.162387 1.161232 -1.830351
v 1.166033 1.084433 -1.495096
v 1.166016 1.084307 -1.831555
v 4.282758 2.327803 -2.805973
v 2.758698 2.330450 -2.805973
vn 0.000000 0.000000 1.000000
vn -0.003300 -1.000000 -0.000100
vn 0.777500 0.628900 0.000000
vn 0.000000 0.788400 0.615200
vn -0.707100 0.000000 0.707100
vn 0.000000 -1.000000 0.000100
vn 0.000000 1.000000 -0.000100
vn -0.001900 1.000000 0.000100
vn -0.001600 0.000500 -1.000000
vn 0.001600 -0.000200 1.000000
vn -0.001600 0.000400 -1.000000
vn 0.001900 -1.000000 -0.000100
vn -0.001600 0.000200 -1.000000
vn 0.001600 -0.000500 1.000000
vn 0.000000 -1.000000 0.000000
vn 0.003600 -1.000000 0.001900
vn -0.003600 1.000000 0.000000
vn -0.000900 -0.000600 1.000000
vn 0.000900 0.000600 -1.000000
vn 0.002200 0.999900 0.014900
vn 0.000000 0.000100 1.000000
vn 1.000000 0.002200 -0.001400
vn 1.000000 0.002200 -0.001900
vn 1.000000 0.001600 -0.001900
vn 1.000000 0.001600 -0.001400
vn 1.000000 0.003300 -0.000400
vn 1.000000 0.002400 -0.000100
vn 1.000000 0.003700 0.000100
vn 1.000000 0.003900 -0.001100
vn 0.000000 0.624400 0.781100
vn 0.000100 0.690500 0.723300
vn -0.000200 0.689900 -0.723900
vn 0.612300 0.790600 0.000000
vn 0.781100 0.624400 0.000000
vn -0.612300 0.790600 0.000000
vn -0.000100 -1.000000 -0.000800
vn 1.000000 -0.000900 0.000000
vn -1.000000 0.000900 -0.000000
vn -0.018700 -0.000600 0.999800
vn 0.001600 -0.000400 1.000000
vn 1.000000 0.001900 -0.001900
vn 1.000000 0.001900 -0.002200
vn 1.000000 0.001900 -0.001400
vn 1.000000 0.001900 -0.001100
vn 1.000000 0.001300 -0.001600
vn 1.000000 0.002200 -0.001600
vn 1.000000 0.002500 -0.001600
vn 1.000000 0.001600 -0.001600
vn 1.000000 0.001900 -0.001600
vn -0.002300 -1.000000 -0.000100
vn -0.003600 1.000000 -0.004300
vn 0.003600 -1.000000 -0.000000
vn 1.000000 0.003000 -0.000500
vn 1.000000 0.003900 -0.004700
vn 0.999900 0.011300 -0.000700
vn 1.000000 0.003300 -0.000500
vn 1.000000 0.003800 0.003600
vn 1.000000 -0.001100 0.000100
vn 1.000000 0.002500 0.003500
vn 1.000000 0.002900 -0.000500
vn 1.000000 0.003100 0.007600
vn 0.003600 -1.000000 -0.004400
vn -0.000900 -0.000700 1.000000
vn -0.000900 -0.000500 1.000000
vn 0.003600 -1.000000 0.004300
vn -0.000900 0.015600 -0.999900
vn 0.998900 0.047000 -0.000100
vn 0.000900 -0.015400 0.999900
vn 0.048800 -0.998800 0.000400
vn -0.048800 0.998800 -0.000700
vn 1.000000 -0.000800 -0.002000
vn -1.000000 0.000800 0.002000
vn -0.017700 0.000700 0.999800
vn -0.001200 -0.001200 1.000000
vn -0.005000 1.000000 -0.001100
vn -0.000100 0.000900 -1.000000
vn 0.005000 -1.000000 0.000000
vn 1.000000 0.005000 -0.000100
vn 0.000100 -0.000900 1.000000
vn 0.000000 0.000000 -1.000000
vn -1.000000 0.000000 0.000000
vn 1.000000 0.003800 -0.000500
vn 1.000000 0.001500 -0.006300
vn 1.000000 0.000600 -0.003800
vn 1.000000 0.001300 -0.001300
vn 1.000000 0.004600 -0.002700
vn 1.000000 0.008100 -0.000600
vn 1.000000 0.006000 -0.004800
vn 1.000000 0.006100 -0.001700
vn 1.000000 0.006400 -0.000900
vn 1.000000 0.002700 -0.004200
vn 1.000000 0.006900 0.000000
vn 1.000000 0.004900 -0.000200
vn 0.003300 -0.000500 1.000000
vn -0.000000 -0.000100 1.000000
vn 1.000000 0.000000 0.000000
usemtl (null)
s off
f 5//1 4//1 12//1 13//1
f 10//1 8//1 14//1 16//1
f 9//2 4//2 31//2 80//2 81//2 127//2 128//2 79//2
f 13//1 12//1 18//1 19//1
f 16//1 14//1 23//1 21//1
f 4//1 9//1 15//1 12//1
f 11//1 10//1 16//1 17//1
f 9//1 11//1 17//1 15//1
f 8//1 5//1 13//1 14//1
f 12//1 15//1 25//1 18//1
f 17//3 16//3 21//3 22//3
f 15//4 17//4 22//4 25//4
f 14//1 13//1 19//1 23//1
f 37//5 38//5 36//5
f 57//6 56//6 75//6 76//6
f 49//7 42//7 60//7 66//7
f 95//8 93//8 109//8 116//8
f 90//9 88//9 117//9 126//9
f 104//8 99//8 111//8 118//8
f 88//8 87//8 112//8 117//8
f 91//10 101//10 119//10 107//10
f 105//9 97//9 115//9 124//9
f 98//11 95//11 116//11 114//11
f 92//12 96//12 113//12 110//12
f 99//13 92//13 110//13 111//13
f 89//12 90//12 126//12 122//12
f 100//12 103//12 125//12 121//12
f 96//14 104//14 118//14 113//14
f 103//11 106//11 123//11 125//11
f 5//15 28//15 31//15 12//15
f 137//16 138//16 174//16 169//16
f 136//17 135//17 159//17 164//17
f 135//18 137//18 169//18 159//18
f 138//19 136//19 164//19 174//19
f 191//20 62//20 67//20 190//20
usemtl Glass
f 54//21 55//21 56//21 57//21
f 51//21 52//21 53//21 50//21
f 45//21 44//21 42//21 43//21
f 48//21 46//21 47//21 49//21
f 106//22 103//22 104//22 105//22
f 95//23 98//23 97//23 96//23
f 92//24 91//24 94//24 93//24
f 101//25 99//25 100//25 102//25
f 154//26 151//26 152//26 153//26
f 140//27 139//27 142//27 141//27
f 149//28 147//28 148//28 150//28
f 144//29 143//29 146//29 145//29
usemtl Material
f 24//30 19//30 18//30
f 26//31 20//31 25//31 22//31
f 20//32 26//32 21//32 23//32
f 20//33 24//33 18//33 25//33
f 26//34 22//34 21//34
f 24//35 20//35 23//35 19//35
usemtl Window_Frame
f 9//36 79//36 34//36 33//36 29//36 11//36
f 27//15 28//15 5//15 8//15
f 29//15 30//15 10//15 11//15
f 28//15 31//15 4//15 5//15
f 30//15 27//15 8//15 10//15
f 48//37 49//37 66//37 65//37
f 56//38 55//38 74//38 75//38
f 51//37 50//37 68//37 69//37
f 44//7 45//7 59//7 58//7
f 35//6 32//6 77//6 72//6
f 50//6 53//6 71//6 68//6
f 45//37 43//37 61//37 59//37
f 70//21 69//21 72//21 77//21 74//21 73//21
f 64//39 75//39 74//39 77//39 67//39 63//39
f 65//21 76//21 75//21 64//21
f 71//21 76//21 65//21 58//21
f 59//21 68//21 71//21 58//21
f 71//21 70//21 73//21 76//21
f 60//21 58//21 65//21 66//21
f 47//38 46//38 64//38 63//38
f 52//7 51//7 69//7 70//7
f 42//38 44//38 58//38 60//38
f 53//38 52//38 70//38 71//38
f 54//37 57//37 76//37 73//37
f 46//7 48//7 65//7 64//7
f 55//7 54//7 73//7 74//7
f 43//6 47//6 63//6 61//6
f 93//40 94//40 108//40 109//40
f 101//12 102//12 120//12 119//12
f 87//10 89//10 122//10 112//10
f 97//8 98//8 114//8 115//8
f 109//41 108//41 114//41 116//41
f 112//42 110//42 113//42 117//42
f 120//43 121//43 125//43 123//43
f 118//44 111//44 122//44 126//44
f 111//45 110//45 112//45 122//45
f 115//46 114//46 123//46 124//46
f 113//47 118//47 126//47 117//47
f 108//48 107//48 119//48 120//48
f 123//49 114//49 108//49 120//49
f 106//12 105//12 124//12 123//12
f 102//40 100//40 121//40 120//40
f 94//8 91//8 107//8 108//8
f 4//50 31//50 79//50 9//50
f 148//51 147//51 165//51 166//51
f 139//19 140//19 156//19 155//19
f 149//52 150//52 168//52 167//52
f 142//17 139//17 155//17 158//17
f 152//17 151//17 170//17 171//17
f 145//17 146//17 162//17 163//17
f 154//52 153//52 172//52 173//52
f 158//53 155//53 167//53 168//53
f 161//54 163//54 172//54 171//54 174//54 164//54
f 156//55 157//55 160//55 161//55 164//55 159//55
f 163//56 162//56 173//56 172//56
f 168//57 166//57 170//57 173//57
f 166//58 165//58 169//58 174//58 171//58 170//58
f 157//59 158//59 162//59 160//59
f 156//60 159//60 169//60 165//60 167//60 155//60
f 158//61 168//61 173//61 162//61
f 151//19 154//19 173//19 170//19
f 146//19 143//19 160//19 162//19
f 153//18 152//18 171//18 172//18
f 143//62 144//62 161//62 160//62
f 141//63 142//63 158//63 157//63
f 150//64 148//64 166//64 168//64
f 140//65 141//65 157//65 156//65
f 147//19 149//19 167//19 165//19
f 144//64 145//64 163//64 161//64
f 185//66 183//66 187//66 189//66
f 186//67 188//67 189//67 187//67
f 182//68 184//68 188//68 186//68
f 184//69 185//69 189//69 188//69
f 183//70 182//70 186//70 187//70
f 32//71 190//71 67//71 77//71
f 191//72 35//72 72//72 62//72
f 59//73 61//73 62//73 72//73 69//73 68//73
f 61//74 63//74 67//74 62//74
usemtl Door
f 177//75 176//75 134//75 181//75
f 179//76 177//76 181//76 180//76
f 178//77 179//77 180//77 175//77
f 134//78 175//78 180//78 181//78
f 176//79 178//79 175//79 134//79
usemtl Wall
f 6//80 3//80 27//80 30//80
f 3//81 1//81 28//81 27//81
f 39//1 40//1 32//1 35//1
f 7//1 29//1 33//1 40//1
f 2//1 85//1 86//1 31//1 28//1 1//1
f 83//82 90//82 89//82 84//82
f 31//83 86//83 87//83 80//83
f 85//84 89//84 87//84 86//84
f 85//85 2//85 84//85 89//85
f 81//86 80//86 87//86 88//86
f 79//87 128//87 136//87 176//87 177//87 82//87
f 81//88 131//88 135//88 127//88
f 132//89 83//89 130//89 137//89
f 128//90 127//90 135//90 136//90
f 132//91 137//91 135//91 131//91
f 129//92 138//92 137//92 130//92
f 136//93 129//93 178//93 176//93
f 78//78 82//78 177//78 179//78
f 34//94 79//94 82//94 78//94 39//94 35//94 191//94
f 34//95 191//95 190//95 33//95
f 7//96 6//96 30//96 29//96 41//96
l 25 79
l 79 133
l 133 78
o grass_texture_Plane
v -8.130743 0.000000 8.130743
v 8.130743 0.000000 8.130743
v -8.130743 0.000000 -8.130743
v 8.130743 0.000000 -8.130743
vt 0.000000 0.000000
vt 1.000000 0.000000
vt 1.000000 1.000000
vt 0.000000 1.000000
vn 0.000000 1.000000 0.000000
usemtl Material.001
s off
f 192/1/97 193/2/97 195/3/97 194/4/97
